<svg width="124" height="40" viewBox="0 0 124 40" fill="none" xmlns="http://www.w3.org/2000/svg">
<g clip-path="url(#clip0_94:221)">
<path d="M5.24756 9.74138V0H15.3929V4.82759H10.2328V9.74138H5.24756Z" fill="#D63C5E"/>
<path d="M5.24756 40V30.2586H15.3929V35.0861H10.2328V40H5.24756Z" fill="#D63C5E"/>
<path d="M25.5384 -3.0088e-05V9.74133H15.3931V4.91376H20.5532V-3.05176e-05L25.5384 -3.0088e-05Z" fill="#D63C5E"/>
<path d="M25.5384 30.2586V40H15.3931V35.1725H20.5532V30.2586H25.5384Z" fill="#D63C5E"/>
<path d="M20.5531 15.1724H15.3931V24.9999H31.0484V15.1724H25.7133V20.0861H20.5531V15.1724Z" fill="#D63C5E"/>
<path d="M10.3203 14.9138H0V25.0862H10.3203V14.9138Z" fill="#D63C5E"/>
</g>
<path d="M50.6803 26.59C50.8843 26.59 51.0283 26.578 51.1123 26.554C51.1963 26.53 51.2503 26.512 51.2743 26.5V26.14C51.2743 25.9 51.2683 25.66 51.2563 25.42C51.2563 25.18 51.2563 24.94 51.2563 24.7C51.2563 24.364 51.2563 24.034 51.2563 23.71C51.2683 23.386 51.2743 23.05 51.2743 22.702C51.2743 22.186 51.2743 21.67 51.2743 21.154C51.2743 20.638 51.2683 20.128 51.2563 19.624V13.828C50.9083 13.756 50.5123 13.72 50.0683 13.72C49.6123 13.72 49.1803 13.756 48.7723 13.828C48.7603 14.128 48.7483 14.41 48.7363 14.674C48.7363 14.926 48.7363 15.178 48.7363 15.43C48.7363 15.862 48.7423 16.288 48.7543 16.708C48.7783 17.116 48.7903 17.56 48.7903 18.04C48.7903 18.244 48.7783 18.454 48.7543 18.67C48.7303 18.886 48.7003 19.006 48.6643 19.03C48.6523 19.03 48.6103 18.964 48.5383 18.832C48.4663 18.688 48.3763 18.52 48.2683 18.328C48.1723 18.124 48.0643 17.902 47.9443 17.662C47.8243 17.41 47.7103 17.176 47.6023 16.96C47.4943 16.732 47.3983 16.534 47.3143 16.366C47.2303 16.198 47.1763 16.084 47.1523 16.024C47.0443 15.772 46.9483 15.568 46.8643 15.412C46.7923 15.244 46.7203 15.094 46.6483 14.962C46.5883 14.83 46.5223 14.692 46.4503 14.548C46.3783 14.404 46.3003 14.224 46.2163 14.008C46.2163 13.984 46.1503 13.96 46.0183 13.936C45.8983 13.912 45.7543 13.894 45.5863 13.882C45.4183 13.858 45.2503 13.846 45.0823 13.846C44.9143 13.834 44.7943 13.828 44.7223 13.828C44.5783 13.828 44.4343 13.834 44.2903 13.846C44.1583 13.858 44.0323 13.876 43.9123 13.9C43.8523 14.668 43.8103 15.46 43.7863 16.276C43.7623 17.08 43.7503 17.896 43.7503 18.724C43.7503 19.852 43.7563 20.932 43.7683 21.964C43.7923 22.996 43.8043 24.082 43.8043 25.222V26.482C44.0803 26.482 44.3623 26.5 44.6503 26.536C44.9503 26.572 45.2443 26.59 45.5323 26.59C45.6643 26.59 45.7963 26.584 45.9283 26.572C46.0603 26.56 46.1923 26.536 46.3243 26.5C46.3123 26.296 46.3063 26.068 46.3063 25.816C46.3063 25.552 46.3063 25.282 46.3063 25.006C46.3063 24.502 46.3063 23.98 46.3063 23.44C46.3183 22.9 46.3303 22.408 46.3423 21.964C46.3543 21.52 46.3663 21.154 46.3783 20.866C46.4023 20.578 46.4203 20.434 46.4323 20.434C46.4563 20.434 46.4863 20.494 46.5223 20.614C46.5703 20.722 46.6183 20.842 46.6663 20.974L46.8463 21.514C47.1223 22.282 47.4523 23.086 47.8363 23.926C48.2323 24.754 48.6283 25.612 49.0243 26.5C49.2643 26.5 49.5403 26.512 49.8523 26.536C50.1643 26.572 50.4403 26.59 50.6803 26.59ZM52.8232 18.292C52.7872 18.424 52.7332 18.604 52.6612 18.832C52.5892 19.048 52.5472 19.222 52.5352 19.354C52.4992 19.582 52.4752 19.804 52.4632 20.02C52.4512 20.224 52.4452 20.434 52.4452 20.65C52.4812 21.046 52.4872 21.484 52.4632 21.964C52.4512 22.444 52.4572 22.924 52.4812 23.404C52.5052 23.872 52.5772 24.322 52.6972 24.754C52.8172 25.186 53.0392 25.546 53.3632 25.834C53.7832 26.254 54.2992 26.518 54.9112 26.626C55.2472 26.626 55.6192 26.638 56.0272 26.662C56.4352 26.698 56.8312 26.698 57.2152 26.662C57.5992 26.638 57.9532 26.566 58.2772 26.446C58.6132 26.326 58.8832 26.122 59.0872 25.834C59.2072 25.714 59.2972 25.492 59.3572 25.168C59.4292 24.844 59.4832 24.478 59.5192 24.07C59.5672 23.662 59.5972 23.236 59.6092 22.792C59.6332 22.348 59.6512 21.952 59.6632 21.604C59.6512 21.208 59.6392 20.824 59.6272 20.452C59.6152 20.068 59.5852 19.72 59.5372 19.408C59.4892 19.084 59.4172 18.802 59.3212 18.562C59.2252 18.322 59.0932 18.148 58.9252 18.04C58.6732 17.8 58.3732 17.62 58.0252 17.5C57.6772 17.368 57.3112 17.29 56.9272 17.266C56.6752 17.242 56.4352 17.242 56.2072 17.266C55.9912 17.278 55.7632 17.272 55.5232 17.248C55.2352 17.248 54.9472 17.266 54.6592 17.302C54.3832 17.338 54.1192 17.404 53.8672 17.5C53.6272 17.584 53.4112 17.692 53.2192 17.824C53.0392 17.956 52.9072 18.112 52.8232 18.292ZM55.0732 20.416C55.2292 20.224 55.4332 20.092 55.6852 20.02C56.1532 19.912 56.5312 19.954 56.8192 20.146C57.1072 20.338 57.2812 20.644 57.3412 21.064C57.4132 21.412 57.4312 21.784 57.3952 22.18C57.3712 22.564 57.3352 22.948 57.2872 23.332C57.2152 23.632 57.0772 23.83 56.8732 23.926C56.7172 24.01 56.5192 24.07 56.2792 24.106C56.0392 24.13 55.8052 24.118 55.5772 24.07C55.3612 24.01 55.1752 23.908 55.0192 23.764C54.8632 23.608 54.7912 23.392 54.8032 23.116C54.8272 22.696 54.8392 22.3 54.8392 21.928C54.8392 21.544 54.8632 21.16 54.9112 20.776C54.9472 20.584 55.0012 20.464 55.0732 20.416ZM65.1395 25.528C65.1515 25.696 65.1515 25.846 65.1395 25.978C65.1395 26.11 65.1515 26.278 65.1755 26.482C65.1755 26.518 65.2235 26.536 65.3195 26.536C65.4155 26.548 65.5235 26.548 65.6435 26.536C65.7635 26.524 65.8835 26.512 66.0035 26.5C66.1235 26.476 66.2075 26.464 66.2555 26.464C66.3995 26.452 66.5195 26.446 66.6155 26.446C66.7115 26.434 66.8015 26.428 66.8855 26.428C66.9695 26.428 67.0595 26.434 67.1555 26.446C67.2515 26.446 67.3715 26.452 67.5155 26.464C67.5635 24.88 67.5695 23.35 67.5335 21.874C67.5095 20.398 67.4975 18.922 67.4975 17.446C67.2095 17.47 66.9695 17.476 66.7775 17.464C66.5855 17.452 66.4115 17.446 66.2555 17.446C66.0995 17.434 65.9435 17.434 65.7875 17.446C65.6435 17.458 65.4695 17.494 65.2655 17.554V17.626C65.2055 18.022 65.1755 18.418 65.1755 18.814C65.1875 19.21 65.1995 19.612 65.2115 20.02C65.2355 20.416 65.2535 20.818 65.2655 21.226C65.2775 21.634 65.2715 22.042 65.2475 22.45C65.2235 22.774 65.1395 23.02 64.9955 23.188C64.8515 23.344 64.6895 23.452 64.5095 23.512C64.3295 23.56 64.1435 23.572 63.9515 23.548C63.7715 23.512 63.6335 23.47 63.5375 23.422C63.5255 23.41 63.5135 23.404 63.5015 23.404C63.4895 23.404 63.4775 23.398 63.4655 23.386C63.3695 23.314 63.2915 23.212 63.2315 23.08C63.1835 22.948 63.1415 22.798 63.1055 22.63C63.0815 22.462 63.0635 22.294 63.0515 22.126C63.0395 21.946 63.0275 21.784 63.0155 21.64C62.9915 21.316 62.9735 20.968 62.9615 20.596C62.9615 20.224 62.9615 19.852 62.9615 19.48C62.9735 19.108 62.9795 18.748 62.9795 18.4C62.9795 18.052 62.9675 17.74 62.9435 17.464C62.5235 17.464 62.1455 17.464 61.8095 17.464C61.4855 17.452 61.1135 17.476 60.6935 17.536C60.7175 17.944 60.7235 18.418 60.7115 18.958C60.6995 19.498 60.6875 20.062 60.6755 20.65C60.6635 21.226 60.6515 21.802 60.6395 22.378C60.6395 22.942 60.6455 23.464 60.6575 23.944C60.6815 24.424 60.7235 24.838 60.7835 25.186C60.8555 25.522 60.9515 25.744 61.0715 25.852C61.3235 26.068 61.6055 26.218 61.9175 26.302C62.2295 26.386 62.5475 26.422 62.8715 26.41C63.2075 26.398 63.5315 26.338 63.8435 26.23C64.1555 26.122 64.4375 25.978 64.6895 25.798C64.7495 25.75 64.8215 25.702 64.9055 25.654C65.0015 25.606 65.0795 25.564 65.1395 25.528ZM71.2271 18.472C71.2151 18.304 71.2091 18.154 71.2091 18.022C71.2211 17.89 71.2151 17.722 71.1911 17.518C71.1911 17.482 71.1431 17.464 71.0471 17.464C70.9511 17.452 70.8431 17.452 70.7231 17.464C70.6031 17.476 70.4831 17.494 70.3631 17.518C70.2431 17.53 70.1591 17.536 70.1111 17.536C69.9671 17.548 69.8471 17.56 69.7511 17.572C69.6551 17.572 69.5651 17.572 69.4811 17.572C69.3971 17.572 69.3071 17.572 69.2111 17.572C69.1151 17.56 68.9951 17.548 68.8511 17.536C68.8031 19.12 68.7911 20.65 68.8151 22.126C68.8511 23.602 68.8691 25.078 68.8691 26.554C69.1571 26.53 69.3971 26.524 69.5891 26.536C69.7811 26.548 69.9551 26.554 70.1111 26.554C70.2671 26.566 70.4171 26.566 70.5611 26.554C70.7171 26.542 70.8971 26.506 71.1011 26.446V26.374C71.1491 25.978 71.1731 25.582 71.1731 25.186C71.1731 24.79 71.1611 24.394 71.1371 23.998C71.1251 23.59 71.1131 23.188 71.1011 22.792C71.0891 22.384 71.0951 21.97 71.1191 21.55C71.1431 21.226 71.2271 20.986 71.3711 20.83C71.5151 20.662 71.6771 20.554 71.8571 20.506C72.0371 20.446 72.2171 20.434 72.3971 20.47C72.5891 20.494 72.7331 20.53 72.8291 20.578C72.8411 20.59 72.8531 20.596 72.8651 20.596C72.8771 20.596 72.8891 20.602 72.9011 20.614C72.9971 20.686 73.0691 20.788 73.1171 20.92C73.1771 21.052 73.2191 21.202 73.2431 21.37C73.2791 21.538 73.3031 21.712 73.3151 21.892C73.3271 22.06 73.3391 22.216 73.3511 22.36C73.3751 22.684 73.3871 23.032 73.3871 23.404C73.3991 23.776 73.3991 24.148 73.3871 24.52C73.3871 24.892 73.3871 25.252 73.3871 25.6C73.3871 25.948 73.3991 26.26 73.4231 26.536C73.8431 26.536 74.2151 26.536 74.5391 26.536C74.8751 26.548 75.2531 26.524 75.6731 26.464C75.6491 26.056 75.6431 25.582 75.6551 25.042C75.6671 24.502 75.6791 23.944 75.6911 23.368C75.7031 22.78 75.7091 22.204 75.7091 21.64C75.7211 21.064 75.7151 20.536 75.6911 20.056C75.6791 19.576 75.6371 19.168 75.5651 18.832C75.5051 18.484 75.4151 18.256 75.2951 18.148C75.0431 17.932 74.7611 17.782 74.4491 17.698C74.1371 17.614 73.8131 17.578 73.4771 17.59C73.1531 17.602 72.8351 17.662 72.5231 17.77C72.2111 17.878 71.9291 18.022 71.6771 18.202C71.6171 18.25 71.5391 18.298 71.4431 18.346C71.3591 18.394 71.2871 18.436 71.2271 18.472ZM84.1366 20.272C84.1366 19.624 84.0166 19.042 83.7766 18.526C83.5366 17.998 83.1346 17.614 82.5706 17.374C82.2586 17.302 81.9166 17.248 81.5446 17.212C81.1726 17.164 80.8006 17.14 80.4286 17.14C80.0566 17.14 79.7026 17.158 79.3666 17.194C79.0426 17.23 78.7666 17.278 78.5386 17.338C77.9506 17.494 77.4946 17.794 77.1706 18.238C76.8586 18.682 76.6906 19.168 76.6666 19.696C76.6546 20.212 76.7986 20.716 77.0986 21.208C77.4106 21.688 77.9026 22.042 78.5746 22.27C78.9106 22.414 79.2526 22.516 79.6006 22.576C79.9486 22.636 80.2606 22.708 80.5366 22.792C80.8126 22.864 81.0346 22.972 81.2026 23.116C81.3706 23.26 81.4366 23.476 81.4006 23.764C81.4126 24.112 81.3046 24.352 81.0766 24.484C80.8486 24.616 80.5966 24.67 80.3206 24.646C80.0446 24.61 79.7806 24.508 79.5286 24.34C79.2886 24.16 79.1626 23.932 79.1506 23.656C78.7786 23.656 78.3406 23.65 77.8366 23.638C77.3326 23.614 76.8826 23.626 76.4866 23.674V23.71V23.764C76.4866 24.244 76.5826 24.676 76.7746 25.06C76.9786 25.444 77.2546 25.768 77.6026 26.032C77.9626 26.296 78.3886 26.494 78.8806 26.626C79.3726 26.758 79.9246 26.812 80.5366 26.788C81.2326 26.8 81.8746 26.68 82.4626 26.428C83.0506 26.176 83.4826 25.756 83.7586 25.168C83.9866 24.508 84.0706 23.956 84.0106 23.512C83.9506 23.056 83.7886 22.612 83.5246 22.18C83.2486 21.82 82.8166 21.562 82.2286 21.406C81.6406 21.238 81.0106 21.106 80.3386 21.01C80.0626 20.914 79.8526 20.77 79.7086 20.578C79.5646 20.386 79.4926 20.194 79.4926 20.002C79.4926 19.81 79.5586 19.636 79.6906 19.48C79.8346 19.312 80.0446 19.204 80.3206 19.156C80.4766 19.144 80.6326 19.168 80.7886 19.228C80.9566 19.276 81.1006 19.354 81.2206 19.462C81.3526 19.57 81.4486 19.696 81.5086 19.84C81.5806 19.984 81.5986 20.128 81.5626 20.272C81.9706 20.356 82.4026 20.392 82.8586 20.38C83.3266 20.368 83.7526 20.332 84.1366 20.272ZM96.7076 17.662C96.6716 16.978 96.5156 16.396 96.2396 15.916C95.9636 15.436 95.6096 15.04 95.1776 14.728C94.7576 14.404 94.2716 14.164 93.7196 14.008C93.1676 13.84 92.5976 13.732 92.0096 13.684C91.4336 13.636 90.8516 13.642 90.2636 13.702C89.6876 13.762 89.1536 13.858 88.6616 13.99C88.6976 14.986 88.7156 16.03 88.7156 17.122C88.7276 18.214 88.7336 19.3 88.7336 20.38C88.7336 21.46 88.7336 22.516 88.7336 23.548C88.7336 24.568 88.7516 25.516 88.7876 26.392C88.9916 26.416 89.2316 26.434 89.5076 26.446C89.7836 26.458 90.0596 26.464 90.3356 26.464C90.6236 26.452 90.8936 26.44 91.1456 26.428C91.4096 26.404 91.6256 26.368 91.7936 26.32C91.8056 26.32 91.8116 26.32 91.8116 26.32C91.8236 26.308 91.8356 26.302 91.8476 26.302V26.284C91.8236 25.408 91.8056 24.712 91.7936 24.196C91.7936 23.68 91.7936 23.272 91.7936 22.972C91.7936 22.66 91.7936 22.426 91.7936 22.27C91.7936 22.102 91.7876 21.934 91.7756 21.766C92.3516 21.862 92.9156 21.838 93.4676 21.694C94.0196 21.538 94.5236 21.292 94.9796 20.956C95.4356 20.62 95.8136 20.212 96.1136 19.732C96.4256 19.252 96.6176 18.724 96.6896 18.148C96.7016 18.076 96.7076 18.004 96.7076 17.932C96.7076 17.848 96.7076 17.764 96.7076 17.68V17.662ZM93.5576 16.906C93.7136 17.002 93.8336 17.122 93.9176 17.266C94.0136 17.41 94.0736 17.566 94.0976 17.734C94.1336 17.902 94.1276 18.07 94.0796 18.238C94.0436 18.406 93.9776 18.556 93.8816 18.688C93.7376 18.832 93.5636 18.94 93.3596 19.012C93.1676 19.072 92.9636 19.114 92.7476 19.138C92.5436 19.162 92.3336 19.18 92.1176 19.192C91.9016 19.192 91.6976 19.198 91.5056 19.21H91.4516C91.3916 19.03 91.3496 18.832 91.3256 18.616C91.3136 18.388 91.3016 18.154 91.2896 17.914C91.2896 17.674 91.2896 17.434 91.2896 17.194C91.3016 16.954 91.3016 16.726 91.2896 16.51C91.3016 16.498 91.3196 16.492 91.3436 16.492C91.7276 16.396 92.1176 16.384 92.5136 16.456C92.9096 16.516 93.2576 16.666 93.5576 16.906ZM104.809 15.844C104.665 15.424 104.419 15.058 104.071 14.746C103.723 14.482 103.327 14.284 102.883 14.152C102.451 14.008 102.001 13.924 101.533 13.9C101.077 13.876 100.615 13.912 100.147 14.008C99.6909 14.092 99.2649 14.23 98.8689 14.422C98.7129 14.518 98.5749 14.626 98.4549 14.746C98.0829 15.166 97.8309 15.652 97.6989 16.204C97.5789 16.744 97.5129 17.284 97.5009 17.824C97.4409 18.772 97.4289 19.72 97.4649 20.668C97.5129 21.604 97.5549 22.54 97.5909 23.476C97.6029 23.824 97.6329 24.172 97.6809 24.52C97.7409 24.856 97.8549 25.174 98.0229 25.474C98.1309 25.714 98.2689 25.912 98.4369 26.068C98.6049 26.212 98.7909 26.332 98.9949 26.428C99.2109 26.524 99.4329 26.59 99.6609 26.626C99.9009 26.674 100.147 26.71 100.399 26.734C100.747 26.758 101.089 26.758 101.425 26.734C101.773 26.71 102.115 26.65 102.451 26.554C102.823 26.458 103.171 26.326 103.495 26.158C103.831 25.978 104.101 25.744 104.305 25.456C104.521 25.108 104.683 24.724 104.791 24.304C104.899 23.872 104.965 23.446 104.989 23.026L105.043 22.432C105.091 21.808 105.109 21.196 105.097 20.596C105.085 19.996 105.097 19.378 105.133 18.742C105.145 18.442 105.145 18.148 105.133 17.86C105.133 17.56 105.121 17.26 105.097 16.96C105.073 16.768 105.037 16.582 104.989 16.402C104.953 16.21 104.893 16.024 104.809 15.844ZM102.883 21.1C102.883 21.124 102.877 21.226 102.865 21.406C102.865 21.586 102.859 21.796 102.847 22.036C102.823 22.288 102.811 22.492 102.811 22.648C102.823 22.792 102.823 22.918 102.811 23.026C102.799 23.134 102.769 23.236 102.721 23.332C102.673 23.416 102.595 23.53 102.487 23.674C102.307 23.878 102.085 24.028 101.821 24.124C101.557 24.208 101.293 24.244 101.029 24.232C100.765 24.208 100.519 24.13 100.291 23.998C100.063 23.866 99.8889 23.68 99.7689 23.44C99.6489 23.044 99.5769 22.63 99.5529 22.198C99.5289 21.754 99.4869 21.322 99.4269 20.902C99.4029 20.398 99.3969 19.894 99.4089 19.39C99.4329 18.886 99.4929 18.406 99.5889 17.95C99.7329 17.446 100.015 17.032 100.435 16.708C100.627 16.564 100.849 16.462 101.101 16.402C101.353 16.342 101.599 16.36 101.839 16.456C102.115 16.588 102.331 16.792 102.487 17.068C102.655 17.344 102.751 17.65 102.775 17.986C102.787 18.19 102.799 18.412 102.811 18.652C102.835 18.88 102.847 19 102.847 19.012L102.883 20.236V21.1ZM111.967 20.182C111.919 19.978 111.853 19.702 111.769 19.354C111.685 19.006 111.595 18.622 111.499 18.202C111.403 17.782 111.301 17.344 111.193 16.888C111.097 16.432 111.001 16.006 110.905 15.61C110.821 15.202 110.737 14.842 110.653 14.53C110.581 14.206 110.527 13.966 110.491 13.81C110.095 13.846 109.771 13.87 109.519 13.882C109.279 13.882 109.081 13.882 108.925 13.882C108.769 13.882 108.643 13.882 108.547 13.882C108.451 13.882 108.361 13.888 108.277 13.9C107.989 14.86 107.725 15.826 107.485 16.798C107.245 17.77 107.023 18.706 106.819 19.606C106.615 20.506 106.435 21.358 106.279 22.162C106.135 22.954 106.009 23.656 105.901 24.268C105.793 24.88 105.709 25.378 105.649 25.762C105.589 26.146 105.547 26.38 105.523 26.464C105.535 26.476 105.547 26.482 105.559 26.482C106.375 26.47 106.975 26.476 107.359 26.5C107.743 26.524 107.983 26.524 108.079 26.5C108.091 26.5 108.097 26.5 108.097 26.5C108.109 26.488 108.121 26.482 108.133 26.482C108.241 26.278 108.325 26.044 108.385 25.78C108.445 25.516 108.499 25.246 108.547 24.97C108.607 24.682 108.661 24.412 108.709 24.16C108.769 23.896 108.841 23.668 108.925 23.476C109.057 23.476 109.159 23.476 109.231 23.476C109.315 23.464 109.387 23.458 109.447 23.458C109.519 23.458 109.597 23.458 109.681 23.458C109.765 23.458 109.885 23.47 110.041 23.494C110.125 23.674 110.203 23.89 110.275 24.142C110.347 24.394 110.413 24.658 110.473 24.934C110.545 25.21 110.611 25.48 110.671 25.744C110.743 26.008 110.815 26.236 110.887 26.428H110.905C111.289 26.512 111.697 26.56 112.129 26.572C112.561 26.596 112.957 26.572 113.317 26.5V26.482L111.967 20.182ZM110.131 21.352C109.903 21.352 109.675 21.358 109.447 21.37C109.219 21.37 109.003 21.364 108.799 21.352C108.883 20.74 108.955 20.17 109.015 19.642C109.087 19.114 109.147 18.676 109.195 18.328C109.255 17.98 109.315 17.752 109.375 17.644C109.447 17.524 109.513 17.566 109.573 17.77C109.645 17.974 109.723 18.364 109.807 18.94C109.903 19.516 110.011 20.32 110.131 21.352ZM121.967 17.662C121.931 16.978 121.775 16.396 121.499 15.916C121.223 15.436 120.869 15.04 120.437 14.728C120.017 14.404 119.531 14.164 118.979 14.008C118.427 13.84 117.857 13.732 117.269 13.684C116.693 13.636 116.111 13.642 115.523 13.702C114.947 13.762 114.413 13.858 113.921 13.99C113.957 14.986 113.975 16.03 113.975 17.122C113.987 18.214 113.993 19.3 113.993 20.38C113.993 21.46 113.993 22.516 113.993 23.548C113.993 24.568 114.011 25.516 114.047 26.392C114.251 26.416 114.491 26.434 114.767 26.446C115.043 26.458 115.319 26.464 115.595 26.464C115.883 26.452 116.153 26.44 116.405 26.428C116.669 26.404 116.885 26.368 117.053 26.32C117.065 26.32 117.071 26.32 117.071 26.32C117.083 26.308 117.095 26.302 117.107 26.302V26.284C117.083 25.408 117.065 24.712 117.053 24.196C117.053 23.68 117.053 23.272 117.053 22.972C117.053 22.66 117.053 22.426 117.053 22.27C117.053 22.102 117.047 21.934 117.035 21.766C117.611 21.862 118.175 21.838 118.727 21.694C119.279 21.538 119.783 21.292 120.239 20.956C120.695 20.62 121.073 20.212 121.373 19.732C121.685 19.252 121.877 18.724 121.949 18.148C121.961 18.076 121.967 18.004 121.967 17.932C121.967 17.848 121.967 17.764 121.967 17.68V17.662ZM118.817 16.906C118.973 17.002 119.093 17.122 119.177 17.266C119.273 17.41 119.333 17.566 119.357 17.734C119.393 17.902 119.387 18.07 119.339 18.238C119.303 18.406 119.237 18.556 119.141 18.688C118.997 18.832 118.823 18.94 118.619 19.012C118.427 19.072 118.223 19.114 118.007 19.138C117.803 19.162 117.593 19.18 117.377 19.192C117.161 19.192 116.957 19.198 116.765 19.21H116.711C116.651 19.03 116.609 18.832 116.585 18.616C116.573 18.388 116.561 18.154 116.549 17.914C116.549 17.674 116.549 17.434 116.549 17.194C116.561 16.954 116.561 16.726 116.549 16.51C116.561 16.498 116.579 16.492 116.603 16.492C116.987 16.396 117.377 16.384 117.773 16.456C118.169 16.516 118.517 16.666 118.817 16.906Z" fill="white"/>
<defs>
<clipPath id="clip0_94:221">
<rect width="31.0483" height="40" fill="white"/>
</clipPath>
</defs>
</svg>
