<svg width="19" height="17" viewBox="0 0 19 17" fill="none" xmlns="http://www.w3.org/2000/svg">
<path d="M5.0798 16C6.55849 16.0495 8.0321 15.8021 9.41354 15.2723C10.795 14.7426 12.0562 13.9413 13.1227 12.9159C14.1892 11.8904 15.0393 10.6615 15.6228 9.30193C16.2062 7.94232 16.5113 6.47954 16.5198 5.00004C17.1974 4.16146 17.7006 3.19587 17.9998 2.16004C18.0221 2.07821 18.0203 1.99166 17.9946 1.91082C17.9689 1.82998 17.9203 1.7583 17.8548 1.70441C17.7893 1.65052 17.7096 1.61672 17.6253 1.60707C17.5411 1.59743 17.4558 1.61235 17.3798 1.65004C17.0253 1.8207 16.6261 1.87582 16.2386 1.80765C15.8511 1.73948 15.4948 1.55145 15.2198 1.27004C14.8687 0.885622 14.4441 0.575575 13.971 0.358271C13.498 0.140968 12.9861 0.0208309 12.4657 0.00497798C11.9454 -0.010875 11.4272 0.0778791 10.9417 0.265981C10.4563 0.454083 10.0136 0.737706 9.6398 1.10004C9.12799 1.5957 8.75312 2.21533 8.55161 2.89872C8.3501 3.5821 8.3288 4.306 8.4898 5.00004C5.1398 5.20004 2.8398 3.61004 0.999797 1.43004C0.94452 1.36745 0.872211 1.3223 0.7917 1.30011C0.711189 1.27793 0.62596 1.27967 0.546422 1.30512C0.466884 1.33057 0.396478 1.37864 0.343803 1.44344C0.291128 1.50824 0.258463 1.58698 0.249797 1.67004C-0.100733 3.61447 0.152126 5.61959 0.974415 7.41611C1.7967 9.21264 3.14904 10.7145 4.8498 11.72C3.70943 13.0279 2.10801 13.8447 0.379797 14C0.287209 14.0154 0.201739 14.0593 0.135349 14.1257C0.0689582 14.192 0.0249704 14.2774 0.00954112 14.37C-0.00588811 14.4626 0.00801365 14.5577 0.0493008 14.6419C0.0905879 14.7262 0.157194 14.7955 0.239797 14.84C1.74332 15.5914 3.39903 15.9882 5.0798 16Z" fill="white"/>
</svg>
